# xmcd CD database file
#
# Track frame offsets:
#	180
#	14420
#	30101
#	44589
#	65055
#	76965
#	88142
#	105772
#
# Disc length: 1564 seconds
#
# Revision: 0
# Processed by: cddbd v1.4PL0 Copyright (c) Steve Scherf et al.
# Submitted via: CDex 1.50beta10
#
DISCID=57061a08
DTITLE=Trouble Makers - Eat at Mama's
DYEAR=1900
DGENRE=Blues
TTITLE0=Poor Boy
TTITLE1=All Around
TTITLE2=Break The Ice
TTITLE3=Don't You Hear The Moan
TTITLE4=You Know
TTITLE5=Everybody's Doin' It
TTITLE6=What You Want Me To Do
TTITLE7=Break Yourself
EXTD=
EXTT0=
EXTT1=
EXTT2=
EXTT3=
EXTT4=
EXTT5=
EXTT6=
EXTT7=
PLAYORDER=
